<?xml version="1.0" standalone="no"?>
<!DOCTYPE svg PUBLIC "-//W3C//DTD SVG 20010904//EN"
 "http://www.w3.org/TR/2001/REC-SVG-20010904/DTD/svg10.dtd">
<svg version="1.0" xmlns="http://www.w3.org/2000/svg"
 width="256.000000pt" height="256.000000pt" viewBox="0 0 256.000000 256.000000"
 preserveAspectRatio="xMidYMid meet">

<g transform="translate(0.000000,256.000000) scale(0.100000,-0.100000)"
fill="#000000" stroke="none">
<path d="M1628 2316 c-238 -127 -837 -471 -855 -492 -16 -17 -23 -38 -23 -64
0 -26 7 -47 23 -64 20 -23 816 -479 895 -513 100 -42 191 90 115 166 -16 14
-180 112 -365 216 -186 104 -338 192 -338 195 0 3 152 91 338 195 185 104 349
202 365 216 51 51 31 136 -39 165 -44 19 -43 19 -116 -20z"/>
<path d="M814 1376 c-68 -30 -87 -115 -36 -165 15 -14 179 -112 365 -216 185
-104 337 -192 337 -195 0 -3 -152 -91 -337 -195 -186 -104 -350 -202 -365
-216 -77 -76 14 -208 114 -166 79 34 875 490 896 513 33 37 30 97 -5 133 -32
30 -875 506 -913 515 -14 3 -39 -1 -56 -8z"/>
</g>
</svg>
